<?xml version="1.0" encoding="UTF-8" standalone="no"?>
<!DOCTYPE svg PUBLIC "-//W3C//DTD SVG 1.1//EN" "http://www.w3.org/Graphics/SVG/1.1/DTD/svg11.dtd">
<svg width="100%" height="100%" viewBox="0 0 40 40" version="1.1" xmlns="http://www.w3.org/2000/svg" xmlns:xlink="http://www.w3.org/1999/xlink" xml:space="preserve" xmlns:serif="http://www.serif.com/" style="fill-rule:evenodd;clip-rule:evenodd;stroke-linejoin:round;stroke-miterlimit:2;">
    <g transform="matrix(0.833333,0,0,0.833333,0,0)">
        <path d="M1.693,0.374L3.431,1.824L3.431,8.359L12.827,8.359L14.105,9.971L12.823,11.505L3.431,11.505L3.431,17.753L1.693,19.199L0,17.753L0,1.82L1.693,0.374ZM6.775,16.843L13.939,16.843L15.138,18.372L13.86,19.989L6.775,19.989L5.617,18.497L6.775,16.843ZM7.024,0L13.856,0L15.134,1.612L13.856,3.145L7.107,3.145L5.742,1.658L7.024,0ZM45.103,3.104L46.634,4.757L45.103,6.415L21.967,6.415L20.478,4.757L21.967,3.104L45.103,3.104ZM19.237,9.971L20.681,8.729L22.129,9.971L22.129,11.795C22.129,14.857 22.954,17.379 26.634,17.379L27.377,17.379C30.683,17.379 32.5,15.144 32.5,11.667L32.5,9.93L33.906,8.688L35.354,9.888L35.354,11.791C35.354,14.895 36.263,17.213 39.818,17.213L40.436,17.213C43.909,17.213 44.527,14.563 44.568,11.667L44.568,9.805L45.975,8.646L47.46,9.847L47.46,11.708C47.418,15.722 46.344,20.317 40.561,20.317L39.943,20.317C36.512,20.317 34.653,18.784 33.911,16.881C33.044,18.825 30.729,20.525 27.588,20.525L26.842,20.525C20.892,20.525 19.283,16.927 19.241,11.874L19.241,9.971L19.237,9.971ZM31.056,39.931L30.231,37.696L32.38,37.077L39.943,40.509L39.943,33.433L41.474,32.15L43.042,33.433L43.042,42.001L45.85,43.284L46.634,45.353L44.444,46.139L31.056,39.931ZM44.527,24.825L46.593,25.776L45.933,27.887L27.335,36.537L25.103,35.669L26.012,33.517L44.527,24.825ZM17.694,36.62L19.511,38.112C19.345,43.368 14.84,46.139 9.513,46.139L8.973,46.139C6.327,46.139 3.232,45.146 1.249,43.243L1.452,41.132L3.394,40.883C4.841,42.125 6.866,42.994 8.766,42.994L9.347,42.994C12.944,42.994 15.711,41.506 16.001,37.987L17.694,36.62ZM15.997,33.184C15.831,29.54 13.105,28.095 9.343,28.095L8.762,28.095C6.53,28.095 4.837,28.963 3.389,30.205L1.452,29.956L1.245,27.845C3.228,25.901 5.995,24.991 8.89,24.991L9.467,24.991C14.84,24.991 19.345,27.725 19.507,33.059L17.69,34.509L15.997,33.184Z" style="fill:rgb(34,5,61);fill-rule:nonzero;"/>
    </g>
</svg>
